<svg xmlns="http://www.w3.org/2000/svg" viewBox="0 0 900 300">
  <style>
    text { font-family: Arial, sans-serif; }
    .title { font-size: 14px; font-weight: bold; fill: #333; }
    .label { font-size: 11px; fill: #555; }
    .axis { stroke: #999; stroke-width: 1; }
  </style>

  <!-- Panel 1: K-Means -->
  <rect x="10" y="10" width="270" height="280" rx="8" fill="#f0f7ff" stroke="#4a90d9" stroke-width="1.5"/>
  <text x="145" y="35" text-anchor="middle" class="title" fill="#4a90d9">K-Means</text>
  <line x1="40" y1="250" x2="250" y2="250" class="axis"/>
  <line x1="40" y1="250" x2="40" y2="60" class="axis"/>
  <!-- Cluster 1 (blue) -->
  <circle cx="80" cy="100" r="3" fill="#4a90d9"/><circle cx="90" cy="110" r="3" fill="#4a90d9"/>
  <circle cx="75" cy="115" r="3" fill="#4a90d9"/><circle cx="95" cy="95" r="3" fill="#4a90d9"/>
  <circle cx="85" cy="105" r="3" fill="#4a90d9"/><circle cx="70" cy="108" r="3" fill="#4a90d9"/>
  <!-- Centroid 1 -->
  <circle cx="83" cy="105" r="6" fill="none" stroke="#4a90d9" stroke-width="2"/>
  <line x1="79" y1="105" x2="87" y2="105" stroke="#4a90d9" stroke-width="2"/>
  <line x1="83" y1="101" x2="83" y2="109" stroke="#4a90d9" stroke-width="2"/>
  <!-- Cluster 2 (orange) -->
  <circle cx="180" cy="180" r="3" fill="#e67e22"/><circle cx="190" cy="170" r="3" fill="#e67e22"/>
  <circle cx="175" cy="190" r="3" fill="#e67e22"/><circle cx="195" cy="185" r="3" fill="#e67e22"/>
  <circle cx="185" cy="175" r="3" fill="#e67e22"/><circle cx="170" cy="178" r="3" fill="#e67e22"/>
  <!-- Centroid 2 -->
  <circle cx="183" cy="180" r="6" fill="none" stroke="#e67e22" stroke-width="2"/>
  <line x1="179" y1="180" x2="187" y2="180" stroke="#e67e22" stroke-width="2"/>
  <line x1="183" y1="176" x2="183" y2="184" stroke="#e67e22" stroke-width="2"/>
  <!-- Cluster 3 (green) -->
  <circle cx="200" cy="90" r="3" fill="#27ae60"/><circle cx="210" cy="100" r="3" fill="#27ae60"/>
  <circle cx="220" cy="85" r="3" fill="#27ae60"/><circle cx="215" cy="95" r="3" fill="#27ae60"/>
  <circle cx="205" cy="88" r="3" fill="#27ae60"/>
  <!-- Centroid 3 -->
  <circle cx="210" cy="92" r="6" fill="none" stroke="#27ae60" stroke-width="2"/>
  <line x1="206" y1="92" x2="214" y2="92" stroke="#27ae60" stroke-width="2"/>
  <line x1="210" y1="88" x2="210" y2="96" stroke="#27ae60" stroke-width="2"/>
  <text x="145" y="265" text-anchor="middle" class="label">Spherical clusters, fixed K</text>
  <text x="145" y="280" text-anchor="middle" class="label" fill="#4a90d9">Assigns to nearest centroid</text>

  <!-- Panel 2: Hierarchical -->
  <rect x="300" y="10" width="270" height="280" rx="8" fill="#fff7f0" stroke="#e67e22" stroke-width="1.5"/>
  <text x="435" y="35" text-anchor="middle" class="title" fill="#e67e22">Hierarchical</text>
  <!-- Dendrogram -->
  <line x1="340" y1="230" x2="340" y2="180" stroke="#e67e22" stroke-width="1.5"/>
  <line x1="370" y1="230" x2="370" y2="180" stroke="#e67e22" stroke-width="1.5"/>
  <line x1="340" y1="180" x2="370" y2="180" stroke="#e67e22" stroke-width="1.5"/>
  <line x1="355" y1="180" x2="355" y2="130" stroke="#e67e22" stroke-width="1.5"/>
  <line x1="430" y1="230" x2="430" y2="160" stroke="#e67e22" stroke-width="1.5"/>
  <line x1="460" y1="230" x2="460" y2="160" stroke="#e67e22" stroke-width="1.5"/>
  <line x1="430" y1="160" x2="460" y2="160" stroke="#e67e22" stroke-width="1.5"/>
  <line x1="445" y1="160" x2="445" y2="130" stroke="#e67e22" stroke-width="1.5"/>
  <line x1="355" y1="130" x2="445" y2="130" stroke="#e67e22" stroke-width="1.5"/>
  <line x1="400" y1="130" x2="400" y2="80" stroke="#e67e22" stroke-width="1.5"/>
  <line x1="510" y1="230" x2="510" y2="80" stroke="#e67e22" stroke-width="1.5"/>
  <line x1="400" y1="80" x2="510" y2="80" stroke="#e67e22" stroke-width="1.5"/>
  <!-- Cut line -->
  <line x1="320" y1="140" x2="540" y2="140" stroke="red" stroke-width="1.5" stroke-dasharray="5,3"/>
  <text x="530" y="136" class="label" fill="red">cut</text>
  <!-- Labels -->
  <text x="340" y="245" text-anchor="middle" style="font-size:10px" fill="#555">A</text>
  <text x="370" y="245" text-anchor="middle" style="font-size:10px" fill="#555">B</text>
  <text x="430" y="245" text-anchor="middle" style="font-size:10px" fill="#555">C</text>
  <text x="460" y="245" text-anchor="middle" style="font-size:10px" fill="#555">D</text>
  <text x="510" y="245" text-anchor="middle" style="font-size:10px" fill="#555">E</text>
  <text x="435" y="265" text-anchor="middle" class="label">Dendrogram, cut to get K</text>
  <text x="435" y="280" text-anchor="middle" class="label" fill="#e67e22">Bottom-up merging</text>

  <!-- Panel 3: DBSCAN -->
  <rect x="590" y="10" width="270" height="280" rx="8" fill="#f0fff0" stroke="#27ae60" stroke-width="1.5"/>
  <text x="725" y="35" text-anchor="middle" class="title" fill="#27ae60">DBSCAN</text>
  <line x1="620" y1="250" x2="830" y2="250" class="axis"/>
  <line x1="620" y1="250" x2="620" y2="60" class="axis"/>
  <!-- Moon shape 1 (green) -->
  <circle cx="660" cy="150" r="3" fill="#27ae60"/><circle cx="670" cy="130" r="3" fill="#27ae60"/>
  <circle cx="690" cy="115" r="3" fill="#27ae60"/><circle cx="710" cy="110" r="3" fill="#27ae60"/>
  <circle cx="730" cy="115" r="3" fill="#27ae60"/><circle cx="750" cy="130" r="3" fill="#27ae60"/>
  <circle cx="760" cy="150" r="3" fill="#27ae60"/>
  <!-- Moon shape 2 (purple) -->
  <circle cx="680" cy="170" r="3" fill="#8e44ad"/><circle cx="690" cy="190" r="3" fill="#8e44ad"/>
  <circle cx="710" cy="200" r="3" fill="#8e44ad"/><circle cx="730" cy="200" r="3" fill="#8e44ad"/>
  <circle cx="750" cy="190" r="3" fill="#8e44ad"/><circle cx="760" cy="170" r="3" fill="#8e44ad"/>
  <!-- Noise points -->
  <circle cx="650" cy="80" r="3" fill="#999"/><circle cx="800" cy="220" r="3" fill="#999"/>
  <text x="650" y="73" style="font-size:9px" fill="#999">noise</text>
  <text x="800" y="213" style="font-size:9px" fill="#999">noise</text>
  <!-- eps radius example -->
  <circle cx="710" cy="110" r="18" fill="none" stroke="#27ae60" stroke-width="1" stroke-dasharray="3,2" opacity="0.5"/>
  <text x="732" y="100" style="font-size:9px" fill="#27ae60">eps</text>
  <text x="725" y="265" text-anchor="middle" class="label">Arbitrary shapes, auto K</text>
  <text x="725" y="280" text-anchor="middle" class="label" fill="#27ae60">Density-based, detects noise</text>
</svg>
