<svg xmlns="http://www.w3.org/2000/svg" viewBox="0 0 900 300">
  <style>
    text { font-family: Arial, sans-serif; }
    .title { font-size: 14px; font-weight: bold; fill: #333; }
    .label { font-size: 11px; fill: #555; }
    .axis { stroke: #999; stroke-width: 1; }
    .arrow { stroke: #333; stroke-width: 1.5; fill: #333; }
  </style>

  <!-- Panel 1: High-dimensional data -->
  <rect x="10" y="10" width="250" height="280" rx="8" fill="#f5f5f5" stroke="#666" stroke-width="1.5"/>
  <text x="135" y="35" text-anchor="middle" class="title" fill="#666">High-Dimensional Data</text>
  <!-- Feature matrix -->
  <rect x="40" y="55" width="190" height="120" rx="4" fill="#fff" stroke="#ccc" stroke-width="1"/>
  <text x="50" y="75" style="font-size:10px; font-family:monospace" fill="#333">f1  f2  f3  f4  ...  fN</text>
  <line x1="40" y1="80" x2="230" y2="80" stroke="#ccc" stroke-width="0.5"/>
  <text x="50" y="95" style="font-size:10px; font-family:monospace" fill="#888">2.1 0.3 1.7 4.2 ... 0.9</text>
  <text x="50" y="110" style="font-size:10px; font-family:monospace" fill="#888">1.5 2.8 0.4 3.1 ... 1.2</text>
  <text x="50" y="125" style="font-size:10px; font-family:monospace" fill="#888">3.2 1.1 2.9 0.8 ... 2.4</text>
  <text x="135" y="145" text-anchor="middle" style="font-size:10px" fill="#aaa">... n rows x d features ...</text>
  <text x="135" y="165" style="font-size:10px" fill="#aaa" text-anchor="middle">d = 50, 100, 1000+</text>
  <!-- Problems -->
  <text x="135" y="200" text-anchor="middle" class="label" fill="#c0392b">Curse of dimensionality</text>
  <text x="135" y="216" text-anchor="middle" class="label" fill="#c0392b">Hard to visualize</text>
  <text x="135" y="232" text-anchor="middle" class="label" fill="#c0392b">Noisy, redundant features</text>
  <text x="135" y="248" text-anchor="middle" class="label" fill="#c0392b">Slow computation</text>

  <!-- Arrow -->
  <polygon points="270,150 290,140 290,148 330,148 330,152 290,152 290,160" fill="#333"/>
  <text x="300" y="140" text-anchor="middle" style="font-size:10px; font-weight:bold" fill="#333">Reduce</text>

  <!-- Panel 2: PCA -->
  <rect x="340" y="10" width="250" height="280" rx="8" fill="#f0f7ff" stroke="#4a90d9" stroke-width="1.5"/>
  <text x="465" y="35" text-anchor="middle" class="title" fill="#4a90d9">PCA (Linear)</text>
  <line x1="370" y1="240" x2="560" y2="240" class="axis"/>
  <line x1="370" y1="240" x2="370" y2="60" class="axis"/>
  <text x="465" y="258" text-anchor="middle" style="font-size:10px" fill="#555">PC1</text>
  <text x="362" y="150" text-anchor="middle" style="font-size:10px" fill="#555" transform="rotate(-90, 362, 150)">PC2</text>
  <!-- Elongated cluster along PC1 -->
  <circle cx="390" cy="160" r="3" fill="#4a90d9" opacity="0.7"/>
  <circle cx="410" cy="150" r="3" fill="#4a90d9" opacity="0.7"/>
  <circle cx="425" cy="145" r="3" fill="#4a90d9" opacity="0.7"/>
  <circle cx="440" cy="155" r="3" fill="#4a90d9" opacity="0.7"/>
  <circle cx="460" cy="140" r="3" fill="#4a90d9" opacity="0.7"/>
  <circle cx="475" cy="148" r="3" fill="#4a90d9" opacity="0.7"/>
  <circle cx="490" cy="135" r="3" fill="#4a90d9" opacity="0.7"/>
  <circle cx="505" cy="142" r="3" fill="#4a90d9" opacity="0.7"/>
  <circle cx="520" cy="130" r="3" fill="#4a90d9" opacity="0.7"/>
  <circle cx="535" cy="138" r="3" fill="#4a90d9" opacity="0.7"/>
  <!-- PC1 direction arrow -->
  <line x1="385" y1="165" x2="545" y2="125" stroke="#4a90d9" stroke-width="2" stroke-dasharray="5,3"/>
  <!-- Variance bar -->
  <rect x="380" y="200" width="140" height="12" rx="2" fill="#4a90d9" opacity="0.6"/>
  <rect x="380" y="216" width="40" height="12" rx="2" fill="#4a90d9" opacity="0.3"/>
  <text x="530" y="210" style="font-size:9px" fill="#4a90d9">PC1: 72%</text>
  <text x="430" y="226" style="font-size:9px" fill="#4a90d9">PC2: 18%</text>
  <text x="465" y="272" text-anchor="middle" class="label" fill="#4a90d9">Max variance directions</text>
  <text x="465" y="285" text-anchor="middle" class="label">Global structure preserved</text>

  <!-- Panel 3: t-SNE -->
  <rect x="610" y="10" width="250" height="280" rx="8" fill="#fff0f5" stroke="#8e44ad" stroke-width="1.5"/>
  <text x="735" y="35" text-anchor="middle" class="title" fill="#8e44ad">t-SNE (Nonlinear)</text>
  <line x1="640" y1="240" x2="830" y2="240" class="axis"/>
  <line x1="640" y1="240" x2="640" y2="60" class="axis"/>
  <!-- Well-separated clusters -->
  <!-- Cluster A -->
  <circle cx="680" cy="100" r="3" fill="#e74c3c"/><circle cx="690" cy="90" r="3" fill="#e74c3c"/>
  <circle cx="675" cy="95" r="3" fill="#e74c3c"/><circle cx="695" cy="105" r="3" fill="#e74c3c"/>
  <circle cx="685" cy="98" r="3" fill="#e74c3c"/><circle cx="670" cy="88" r="3" fill="#e74c3c"/>
  <!-- Cluster B -->
  <circle cx="770" cy="90" r="3" fill="#27ae60"/><circle cx="780" cy="100" r="3" fill="#27ae60"/>
  <circle cx="775" cy="85" r="3" fill="#27ae60"/><circle cx="785" cy="95" r="3" fill="#27ae60"/>
  <circle cx="765" cy="92" r="3" fill="#27ae60"/>
  <!-- Cluster C -->
  <circle cx="720" cy="190" r="3" fill="#3498db"/><circle cx="730" cy="180" r="3" fill="#3498db"/>
  <circle cx="715" cy="185" r="3" fill="#3498db"/><circle cx="735" cy="195" r="3" fill="#3498db"/>
  <circle cx="725" cy="188" r="3" fill="#3498db"/><circle cx="740" cy="185" r="3" fill="#3498db"/>
  <circle cx="710" cy="192" r="3" fill="#3498db"/>
  <text x="735" y="265" text-anchor="middle" class="label" fill="#8e44ad">Preserves local neighborhoods</text>
  <text x="735" y="280" text-anchor="middle" class="label">Best for visualization</text>
</svg>
